<?xml version="1.0" encoding="utf-8"?>
<!-- Generator: Adobe Illustrator 27.5.0, SVG Export Plug-In . SVG Version: 6.00 Build 0)  -->
<svg version="1.1" id="Capa_1" xmlns="http://www.w3.org/2000/svg" xmlns:xlink="http://www.w3.org/1999/xlink" x="0px" y="0px"
	 viewBox="0 0 2122 2122" style="enable-background:new 0 0 2122 2122;" xml:space="preserve">
<g>
	<path style="fill:#E61C56;" d="M1903.359,1647.234c-167.984-122.535-275.684-20.719-285.941-10.309
		c-0.324-0.039-0.625-0.09-0.906-0.125c-0.059-0.07-0.094-0.098-0.094-0.098c0.008,0.027,0.016,0.055,0.023,0.086
		c-0.176-0.016-0.34-0.039-0.508-0.066l-0.078-0.168l-0.266-0.512l-0.246-0.57l-0.285-0.555l-0.328-0.605l-0.582-1.266l-0.336-0.633
		l-0.32-0.668l-0.328-0.699l-0.355-0.637l-0.332-0.703l-0.332-0.691l-0.32-0.66l-0.371-0.676l-0.313-0.664l-0.309-0.668
		l-0.324-0.605l-0.301-0.637l-0.305-0.574l-0.262-0.598l-0.762-1.523l-0.223-0.453l-0.195-0.371l-0.18-0.383l-0.141-0.285
		l-0.137-0.266l-0.098-0.211l-0.082-0.125c-0.047-0.066-3.32-6.758-9.039-18.246c-35.09-71.129-160.84-325.902-160.84-325.902
		l-71.258-144.395l-6.371-12.934l-55.398-112.195l-42.375-85.805l-120.867-244.898c3.594-35.031-3.305-63.602-22.141-82.199
		c-63.59-62.801-239.16,11.875-392.152,166.781c-152.988,154.91-225.457,331.398-161.871,394.203
		c18.848,18.605,47.516,25.144,82.512,21.101l105.285,50.367l240.484,114.988l112.812,53.961l17.969,8.586l165.309,79.063
		c1.293,0.602,1.309,0.637,1.363,0.645l0.094,0.074l0.102,0.02l0.109,0.074l0.121,0.043l0.133,0.059l0.125,0.051l0.098,0.07
		l0.117,0.055l0.156,0.086l0.125,0.051l0.133,0.051l0.152,0.09l0.145,0.07l0.129,0.051l0.172,0.074l0.152,0.082l0.152,0.078
		l0.18,0.063l0.141,0.082l0.176,0.113l0.184,0.063l0.176,0.059l0.176,0.121l0.188,0.059l0.199,0.094l0.164,0.113l0.199,0.098
		l0.414,0.18l0.199,0.098l0.195,0.086l0.207,0.098l0.227,0.125l0.199,0.09l0.195,0.094l0.266,0.105l0.223,0.121l0.203,0.094
		l0.25,0.105l0.23,0.129l0.254,0.102l0.211,0.125l0.258,0.098l0.25,0.164l0.258,0.102l0.254,0.102l0.25,0.152l0.254,0.105
		l0.27,0.137l0.277,0.133l0.27,0.105l0.262,0.133l0.289,0.137l0.27,0.129l0.281,0.141l0.293,0.164l0.277,0.137l0.305,0.109
		l0.285,0.137l0.297,0.168l0.305,0.109l0.301,0.172l0.324,0.141l0.301,0.172l0.309,0.105l0.297,0.168l0.332,0.141l0.301,0.168
		l0.324,0.148l0.359,0.168l0.324,0.152l0.332,0.141l0.328,0.195l0.332,0.156l0.336,0.172l0.336,0.141l0.352,0.184l0.348,0.172
		l0.387,0.156l0.332,0.141l0.344,0.176l0.363,0.18l0.367,0.207l0.383,0.152l0.348,0.176l0.391,0.156l0.371,0.207l0.34,0.176
		l0.41,0.188l0.387,0.16l0.375,0.207l0.398,0.18l0.355,0.176l0.406,0.184l0.398,0.191l0.398,0.188l0.414,0.184l0.375,0.207
		l0.41,0.191l0.395,0.184l0.422,0.215l0.41,0.191l0.418,0.215l0.406,0.184l0.434,0.219l0.43,0.168l0.426,0.219l0.43,0.215
		l0.402,0.188l0.461,0.195l0.426,0.215l0.426,0.223l0.453,0.203l0.426,0.211l0.461,0.191l0.426,0.223l0.477,0.227l0.43,0.219
		l0.457,0.199l0.453,0.25l0.453,0.188l0.477,0.23l0.449,0.25l0.457,0.199l0.469,0.223l0.492,0.234l0.473,0.23l0.457,0.188
		l0.477,0.227l0.488,0.227l0.473,0.234l0.504,0.258l0.477,0.227l0.488,0.227l0.473,0.234l0.5,0.254l0.477,0.23l0.484,0.227
		l0.531,0.234l0.477,0.223l0.496,0.266l0.535,0.242l0.484,0.23l0.492,0.258l0.539,0.234l0.496,0.262l0.527,0.234l0.504,0.262
		l0.535,0.238l0.5,0.258l1.063,0.473l0.504,0.262l0.523,0.238l0.559,0.266l0.496,0.258l0.539,0.246l0.551,0.266l0.535,0.238
		l0.551,0.266l0.531,0.242l0.527,0.289l0.555,0.273l0.527,0.23l0.555,0.273l0.555,0.27l0.555,0.27l0.547,0.266l0.555,0.273
		l0.586,0.254l0.555,0.266l0.555,0.27l0.559,0.27l0.555,0.266l0.582,0.246l0.551,0.266l0.582,0.305l0.555,0.27l0.574,0.25
		l0.574,0.309l0.566,0.262l0.594,0.277l0.555,0.273l0.613,0.277l0.547,0.27l0.613,0.27l0.574,0.309l0.586,0.25l0.574,0.301
		l0.605,0.277l0.594,0.277l0.586,0.301l0.602,0.281l0.617,0.281l0.574,0.301l0.598,0.273l0.609,0.281l0.609,0.285l0.578,0.297
		l0.605,0.281l0.605,0.277l0.621,0.313l0.617,0.281l0.602,0.277l0.574,0.305l0.625,0.305l0.613,0.277l0.621,0.309l0.613,0.281
		l0.629,0.313l0.602,0.285l0.633,0.309l0.605,0.273l0.629,0.316l0.656,0.289l0.605,0.281l0.633,0.309l0.629,0.313l0.625,0.305
		l0.629,0.313l0.641,0.262l0.625,0.309l0.625,0.313l0.637,0.316l0.656,0.281l0.625,0.316l0.625,0.316l0.633,0.305l0.66,0.285
		l0.637,0.316l0.645,0.344l0.66,0.297l0.625,0.301l0.656,0.293l0.637,0.305l0.672,0.324l0.629,0.313l0.664,0.285l0.656,0.344
		l0.621,0.316l0.66,0.285l0.68,0.316l0.633,0.316l0.676,0.313l0.629,0.316l0.684,0.324l0.633,0.305l0.672,0.328l0.664,0.285
		l0.652,0.344l0.676,0.32l0.664,0.293l0.648,0.336l0.676,0.32l0.668,0.297l0.645,0.336l0.684,0.316l0.68,0.328l0.66,0.293
		l0.648,0.336l0.684,0.32l1.359,0.645l0.652,0.344l0.676,0.313l0.664,0.297l0.688,0.316l0.672,0.328l0.688,0.313l0.648,0.348
		l0.68,0.32l0.684,0.32l0.676,0.332l0.688,0.313l0.68,0.324l0.676,0.313l0.711,0.355l0.672,0.328l0.652,0.336l0.684,0.32
		l0.672,0.316l0.691,0.328l0.684,0.316l0.68,0.32l0.703,0.359l0.672,0.316l0.688,0.324l0.688,0.316l0.695,0.355l2.043,0.965
		l0.711,0.352l0.676,0.32l0.68,0.32l0.691,0.316l0.699,0.352l0.68,0.328l0.68,0.316l0.738,0.324l0.672,0.328l0.691,0.32l0.691,0.355
		l0.684,0.316l0.703,0.355l0.688,0.324l0.68,0.32l0.707,0.352l0.676,0.32l0.684,0.316l0.703,0.355l0.707,0.297l0.707,0.355
		l0.684,0.324l0.672,0.316l0.711,0.355l0.684,0.32l0.699,0.352l0.684,0.32l0.699,0.355l0.711,0.293l0.68,0.32l0.707,0.355l0.68,0.32
		l0.707,0.344l0.688,0.328l0.691,0.355l0.684,0.316l0.707,0.355l0.703,0.301l0.684,0.316l0.695,0.355l0.695,0.324l0.695,0.355
		l0.684,0.316l0.699,0.359l0.688,0.316l0.707,0.297l0.699,0.352l0.688,0.328l0.699,0.344l0.688,0.328l0.684,0.316l0.695,0.352
		l0.68,0.32l0.707,0.352l0.676,0.324l0.719,0.297l0.707,0.352l0.676,0.328l0.695,0.348l0.688,0.32l0.68,0.32l0.703,0.355
		l0.684,0.316l0.672,0.32l0.707,0.352l0.691,0.32l0.672,0.328l0.684,0.316l0.711,0.352l0.672,0.324l0.684,0.316l0.688,0.324
		l0.695,0.355l0.676,0.316l0.688,0.32l0.684,0.328l0.699,0.344l0.684,0.324l0.684,0.324l0.68,0.316l0.672,0.316l0.691,0.328
		l0.668,0.32l0.719,0.352l0.68,0.32l0.672,0.324l0.691,0.32l0.68,0.316l0.648,0.348l0.68,0.32l0.684,0.32l0.684,0.324l0.676,0.32
		l0.688,0.316l0.672,0.32l0.645,0.348l0.691,0.316l0.676,0.328l0.656,0.285l0.684,0.32l0.652,0.336l0.684,0.332l0.68,0.313
		l0.66,0.293l0.648,0.34l1.363,0.641l0.633,0.309l0.684,0.328l0.68,0.316l0.625,0.316l0.684,0.316l0.68,0.324l0.621,0.305
		l0.684,0.328l0.664,0.281l0.637,0.348l0.668,0.285l0.652,0.344l0.664,0.289l0.645,0.348l0.66,0.289l0.625,0.305l0.688,0.32
		l0.617,0.316l0.664,0.285l0.656,0.344l0.66,0.289l0.621,0.313l0.633,0.313l0.664,0.285l0.625,0.313l0.68,0.32l0.625,0.313
		l0.633,0.313l0.625,0.313l0.656,0.281l0.633,0.313l0.633,0.32l0.66,0.285l0.602,0.27l0.629,0.32l0.621,0.305l0.633,0.316
		l0.633,0.309l0.645,0.258l0.617,0.316l0.629,0.313l0.605,0.277l1.262,0.617l0.602,0.285l0.629,0.309l0.605,0.281l0.633,0.305
		l0.605,0.281l0.602,0.273l0.625,0.316l0.613,0.273l0.574,0.313l0.605,0.273l0.633,0.316l0.605,0.277l0.602,0.277l0.578,0.297
		l0.613,0.285l0.602,0.277l0.605,0.281l0.574,0.301l0.605,0.273l0.574,0.305l0.613,0.281l0.586,0.246l0.574,0.301l0.605,0.277
		l0.574,0.305l0.586,0.25l0.574,0.297l0.586,0.25l0.574,0.297l0.582,0.25l0.586,0.305l0.547,0.262l0.602,0.285l0.563,0.266
		l0.539,0.273l0.555,0.27l0.617,0.281l0.555,0.262l0.555,0.273l0.551,0.27l0.559,0.266l0.582,0.25l0.551,0.266l0.555,0.281
		l0.555,0.262l0.527,0.238l0.563,0.27l0.547,0.266l0.535,0.238l0.52,0.293l0.555,0.27l0.535,0.238l0.547,0.27l0.531,0.238
		l0.535,0.238l0.527,0.293l0.527,0.23l0.527,0.242l0.508,0.262l0.547,0.273l0.535,0.227l0.5,0.27l0.531,0.223l0.504,0.27
		l0.512,0.203l0.5,0.258l0.496,0.27l0.531,0.23l0.496,0.262l0.508,0.203l0.508,0.266l0.477,0.223l0.508,0.258l0.508,0.211
		l0.504,0.258l0.484,0.223l0.473,0.23l0.477,0.234l0.477,0.223l0.508,0.254l0.477,0.234l0.477,0.223l0.48,0.23l0.457,0.195
		l0.48,0.234l0.48,0.223l0.441,0.258l0.469,0.191l0.473,0.227l0.453,0.195l0.449,0.246l0.457,0.203l0.449,0.242l0.453,0.195
		l0.461,0.195l0.43,0.219l0.477,0.227l0.418,0.223l0.434,0.215l0.465,0.199l0.41,0.215l0.406,0.191l0.461,0.199l0.426,0.215
		l0.41,0.184l0.43,0.215l0.418,0.223l0.41,0.188l0.402,0.184l0.426,0.219l0.398,0.188l0.41,0.184l0.398,0.18l0.41,0.195l0.41,0.18
		l0.359,0.211l0.414,0.188l0.398,0.184l0.406,0.188l0.371,0.207l0.387,0.156l0.371,0.211l0.383,0.148l0.379,0.215l0.379,0.148
		l0.352,0.184l0.402,0.18l0.352,0.18l0.355,0.18l0.348,0.176l0.379,0.152l0.355,0.168l0.32,0.152l0.363,0.176l0.352,0.176
		l0.324,0.145l0.355,0.176l0.324,0.141l0.359,0.18l0.301,0.168l0.328,0.145l0.344,0.176l0.332,0.141l0.301,0.168l0.324,0.148
		l0.336,0.148l0.277,0.129l0.332,0.148l0.293,0.164l0.277,0.133l0.328,0.145l0.281,0.133l0.289,0.172l0.313,0.109l0.273,0.137
		l0.281,0.137l0.285,0.133l0.273,0.133l0.277,0.129l0.277,0.148l0.273,0.125l0.27,0.133l0.254,0.102l0.289,0.141l0.219,0.121
		l0.277,0.137l0.254,0.102l0.23,0.129l0.25,0.105l0.227,0.117l0.254,0.102l0.223,0.133l0.254,0.105l0.223,0.117l0.207,0.094
		l0.223,0.129l0.23,0.07l0.227,0.121l0.207,0.09l0.199,0.098l0.219,0.125l0.203,0.094l0.207,0.098l0.195,0.086l0.156,0.086
		l0.203,0.098l0.195,0.086l0.148,0.086l0.203,0.09l0.184,0.063l0.172,0.113l0.18,0.066l0.148,0.082l0.145,0.078l0.18,0.066
		l0.148,0.082l0.156,0.082l0.129,0.059l0.145,0.078l0.152,0.082l0.133,0.055l0.125,0.047l0.145,0.078l0.137,0.059l0.117,0.051
		l0.129,0.051l0.09,0.078l0.133,0.047l0.098,0.02l0.105,0.07l0.129,0.051l0.078,0.047l0.254,0.102l0.758,0.309l0.129,0.051
		l-0.012-0.031c0.055,0.031,0.109,0.066,0.156,0.102c58.047,182.336-33.324,295.043-33.324,295.043l90.746,24.219
		c71.445-149.543-32.48-290.137-54.348-317.176c151.957,104.43,187.914,273.52,187.914,273.52l59.813-57.012
		c-70.84-183.449-215.012-215.563-248.188-220.602c155.488-22.227,284.305,106.914,284.305,106.914L1903.359,1647.234z"/>
	<path style="fill:#7C2F79;" d="M1583.926,1934.324l90.746,24.219c71.445-149.543-32.48-290.137-54.348-317.176
		c-1.023-0.695-2.051-1.398-3.074-2.086C1675.297,1821.617,1583.926,1934.324,1583.926,1934.324z"/>
	<path style="fill:#FBBC09;" d="M1904.168,1744.188l-0.809-96.953c-167.984-122.535-275.684-20.719-285.941-10.309
		c0.73,0.094,1.547,0.207,2.445,0.348C1775.352,1615.047,1904.168,1744.188,1904.168,1744.188z"/>
	<path style="fill:#40B6A7;" d="M1616.512,1636.801c-0.027,0-0.039-0.004-0.07-0.012c-0.176-0.016-0.34-0.039-0.508-0.066
		l0.152,0.324l0.254,0.426l0.172,0.391l0.211,0.371l0.129,0.328l0.137,0.266l0.105,0.352c0.055,0.031,0.109,0.066,0.156,0.102
		c1.023,0.688,2.051,1.391,3.074,2.086c151.957,104.43,187.914,273.52,187.914,273.52l59.813-57.012
		c-70.84-183.449-215.012-215.563-248.188-220.602c-0.898-0.141-1.715-0.254-2.445-0.348
		C1617.094,1636.887,1616.793,1636.836,1616.512,1636.801z"/>
	<path style="fill:#F9B24B;" d="M1119.535,593.742c-63.59-62.801-239.16,11.875-392.152,166.781
		c-152.988,154.91-225.457,331.398-161.871,394.203c18.848,18.605,47.516,25.144,82.512,21.101
		c67.031-7.73,157.27-54.266,246.145-129.137c21.359-17.996,42.633-37.625,63.496-58.746
		c107.68-109.027,175.469-228.75,184.012-312.004C1145.27,640.91,1138.371,612.34,1119.535,593.742z"/>
	<path style="fill:#2E3883;" d="M1111.305,652.684c-2.082-15.719-7.855-28.793-17.656-38.469
		c-54.762-54.102-214.234,18.578-356.203,162.34c-71.844,72.734-125.426,149.738-153.719,215.09
		c-27.641,63.746-31.215,116.426-4.156,143.125c54.738,54.078,214.242-18.629,356.184-162.367
		C1052.387,854.356,1120.914,725.09,1111.305,652.684z"/>
	<path style="fill:#E51146;" d="M1617.094,1639.18l-0.105-0.352l-0.137-0.266l-0.129-0.328l-0.211-0.371l-0.172-0.391l-0.254-0.426
		l-0.152-0.324l-0.078-0.168l-0.266-0.512l-0.246-0.57l-0.285-0.555l-0.328-0.605l-0.582-1.266l-0.336-0.633l-0.32-0.668
		l-0.328-0.699l-0.355-0.637l-0.332-0.703l-0.332-0.691l-0.32-0.66l-0.371-0.676l-0.313-0.664l-0.309-0.668l-0.324-0.605
		l-0.301-0.637l-0.305-0.574l-0.262-0.598l-0.762-1.523l-0.223-0.453l-0.195-0.371l-0.18-0.383l-0.141-0.285l-0.137-0.266
		l-0.098-0.211l-0.082-0.125c-0.047-0.066-3.32-6.758-9.039-18.246l-245.453-193.457l-120.477-94.996l-100.555-79.258l0,0
		l-139.668-110.063l0,0l-98.465-77.605c-88.875,74.871-179.113,121.406-246.145,129.137l105.285,50.367l240.484,114.988
		l112.812,53.961l17.969,8.586l165.309,79.063c1.293,0.602,1.309,0.637,1.363,0.645l0.094,0.074l0.102,0.02l0.109,0.074l0.121,0.043
		l0.133,0.059l0.125,0.051l0.098,0.07l0.117,0.055l0.156,0.086l0.125,0.051l0.133,0.051l0.152,0.09l0.145,0.07l0.129,0.051
		l0.172,0.074l0.152,0.082l0.152,0.078l0.18,0.063l0.141,0.082l0.176,0.113l0.184,0.063l0.176,0.059l0.176,0.121l0.188,0.059
		l0.199,0.094l0.164,0.113l0.199,0.098l0.414,0.18l0.199,0.098l0.195,0.086l0.207,0.098l0.227,0.125l0.199,0.09l0.195,0.094
		l0.266,0.105l0.223,0.121l0.203,0.094l0.25,0.105l0.23,0.129l0.254,0.102l0.211,0.125l0.258,0.098l0.25,0.164l0.258,0.102
		l0.254,0.102l0.25,0.152l0.254,0.105l0.27,0.137l0.277,0.133l0.27,0.105l0.262,0.133l0.289,0.137l0.27,0.129l0.281,0.141
		l0.293,0.164l0.277,0.137l0.305,0.109l0.285,0.137l0.297,0.168l0.305,0.109l0.301,0.172l0.324,0.141l0.301,0.172l0.309,0.105
		l0.297,0.168l0.332,0.141l0.301,0.168l0.324,0.148l0.359,0.168l0.324,0.152l0.332,0.141l0.328,0.195l0.332,0.156l0.336,0.172
		l0.336,0.141l0.352,0.184l0.348,0.172l0.387,0.156l0.332,0.141l0.344,0.176l0.363,0.18l0.367,0.207l0.383,0.152l0.348,0.176
		l0.391,0.156l0.371,0.207l0.34,0.176l0.41,0.188l0.387,0.16l0.375,0.207l0.398,0.18l0.355,0.176l0.406,0.184l0.398,0.191
		l0.398,0.188l0.414,0.184l0.375,0.207l0.41,0.191l0.395,0.184l0.422,0.215l0.41,0.191l0.418,0.215l0.406,0.184l0.434,0.219
		l0.43,0.168l0.426,0.219l0.43,0.215l0.402,0.188l0.461,0.195l0.426,0.215l0.426,0.223l0.453,0.203l0.426,0.211l0.461,0.191
		l0.426,0.223l0.477,0.227l0.43,0.219l0.457,0.199l0.453,0.25l0.453,0.188l0.477,0.23l0.449,0.25l0.457,0.199l0.469,0.223
		l0.492,0.234l0.473,0.23l0.457,0.188l0.477,0.227l0.488,0.227l0.473,0.234l0.504,0.258l0.477,0.227l0.488,0.227l0.473,0.234
		l0.5,0.254l0.477,0.23l0.484,0.227l0.531,0.234l0.477,0.223l0.496,0.266l0.535,0.242l0.484,0.23l0.492,0.258l0.539,0.234
		l0.496,0.262l0.527,0.234l0.504,0.262l0.535,0.238l0.5,0.258l1.063,0.473l0.504,0.262l0.523,0.238l0.559,0.266l0.496,0.258
		l0.539,0.246l0.551,0.266l0.535,0.238l0.551,0.266l0.531,0.242l0.527,0.289l0.555,0.273l0.527,0.23l0.555,0.273l0.555,0.27
		l0.555,0.27l0.547,0.266l0.555,0.273l0.586,0.254l0.555,0.266l0.555,0.27l0.559,0.27l0.555,0.266l0.582,0.246l0.551,0.266
		l0.582,0.305l0.555,0.27l0.574,0.25l0.574,0.309l0.566,0.262l0.594,0.277l0.555,0.273l0.613,0.277l0.547,0.27l0.613,0.27
		l0.574,0.309l0.586,0.25l0.574,0.301l0.605,0.277l0.594,0.277l0.586,0.301l0.602,0.281l0.617,0.281l0.574,0.301l0.598,0.273
		l0.609,0.281l0.609,0.285l0.578,0.297l0.605,0.281l0.605,0.277l0.621,0.313l0.617,0.281l0.602,0.277l0.574,0.305l0.625,0.305
		l0.613,0.277l0.621,0.309l0.613,0.281l0.629,0.313l0.602,0.285l0.633,0.309l0.605,0.273l0.629,0.316l0.656,0.289l0.605,0.281
		l0.633,0.309l0.629,0.313l0.625,0.305l0.629,0.313l0.641,0.262l0.625,0.309l0.625,0.313l0.637,0.316l0.656,0.281l0.625,0.316
		l0.625,0.316l0.633,0.305l0.66,0.285l0.637,0.316l0.645,0.344l0.66,0.297l0.625,0.301l0.656,0.293l0.637,0.305l0.672,0.324
		l0.629,0.313l0.664,0.285l0.656,0.344l0.621,0.316l0.66,0.285l0.68,0.316l0.633,0.316l0.676,0.313l0.629,0.316l0.684,0.324
		l0.633,0.305l0.672,0.328l0.664,0.285l0.652,0.344l0.676,0.32l0.664,0.293l0.648,0.336l0.676,0.32l0.668,0.297l0.645,0.336
		l0.684,0.316l0.68,0.328l0.66,0.293l0.648,0.336l0.684,0.32l1.359,0.645l0.652,0.344l0.676,0.313l0.664,0.297l0.688,0.316
		l0.672,0.328l0.688,0.313l0.648,0.348l0.68,0.32l0.684,0.32l0.676,0.332l0.688,0.313l0.68,0.324l0.676,0.313l0.711,0.355
		l0.672,0.328l0.652,0.336l0.684,0.32l0.672,0.316l0.691,0.328l0.684,0.316l0.68,0.32l0.703,0.359l0.672,0.316l0.688,0.324
		l0.688,0.316l0.695,0.355l2.043,0.965l0.711,0.352l0.676,0.32l0.68,0.32l0.691,0.316l0.699,0.352l0.68,0.328l0.68,0.316
		l0.738,0.324l0.672,0.328l0.691,0.32l0.691,0.355l0.684,0.316l0.703,0.355l0.688,0.324l0.68,0.32l0.707,0.352l0.676,0.32
		l0.684,0.316l0.703,0.355l0.707,0.297l0.707,0.355l0.684,0.324l0.672,0.316l0.711,0.355l0.684,0.32l0.699,0.352l0.684,0.32
		l0.699,0.355l0.711,0.293l0.68,0.32l0.707,0.355l0.68,0.32l0.707,0.344l0.688,0.328l0.691,0.355l0.684,0.316l0.707,0.355
		l0.703,0.301l0.684,0.316l0.695,0.355l0.695,0.324l0.695,0.355l0.684,0.316l0.699,0.359l0.688,0.316l0.707,0.297l0.699,0.352
		l0.688,0.328l0.699,0.344l0.688,0.328l0.684,0.316l0.695,0.352l0.68,0.32l0.707,0.352l0.676,0.324l0.719,0.297l0.707,0.352
		l0.676,0.328l0.695,0.348l0.688,0.32l0.68,0.32l0.703,0.355l0.684,0.316l0.672,0.32l0.707,0.352l0.691,0.32l0.672,0.328
		l0.684,0.316l0.711,0.352l0.672,0.324l0.684,0.316l0.688,0.324l0.695,0.355l0.676,0.316l0.688,0.32l0.684,0.328l0.699,0.344
		l0.684,0.324l0.684,0.324l0.68,0.316l0.672,0.316l0.691,0.328l0.668,0.32l0.719,0.352l0.68,0.32l0.672,0.324l0.691,0.32l0.68,0.316
		l0.648,0.348l0.68,0.32l0.684,0.32l0.684,0.324l0.676,0.32l0.688,0.316l0.672,0.32l0.645,0.348l0.691,0.316l0.676,0.328
		l0.656,0.285l0.684,0.32l0.652,0.336l0.684,0.332l0.68,0.313l0.66,0.293l0.648,0.34l1.363,0.641l0.633,0.309l0.684,0.328
		l0.68,0.316l0.625,0.316l0.684,0.316l0.68,0.324l0.621,0.305l0.684,0.328l0.664,0.281l0.637,0.348l0.668,0.285l0.652,0.344
		l0.664,0.289l0.645,0.348l0.66,0.289l0.625,0.305l0.688,0.32l0.617,0.316l0.664,0.285l0.656,0.344l0.66,0.289l0.621,0.313
		l0.633,0.313l0.664,0.285l0.625,0.313l0.68,0.32l0.625,0.313l0.633,0.313l0.625,0.313l0.656,0.281l0.633,0.313l0.633,0.32
		l0.66,0.285l0.602,0.27l0.629,0.32l0.621,0.305l0.633,0.316l0.633,0.309l0.645,0.258l0.617,0.316l0.629,0.313l0.605,0.277
		l1.262,0.617l0.602,0.285l0.629,0.309l0.605,0.281l0.633,0.305l0.605,0.281l0.602,0.273l0.625,0.316l0.613,0.273l0.574,0.313
		l0.605,0.273l0.633,0.316l0.605,0.277l0.602,0.277l0.578,0.297l0.613,0.285l0.602,0.277l0.605,0.281l0.574,0.301l0.605,0.273
		l0.574,0.305l0.613,0.281l0.586,0.246l0.574,0.301l0.605,0.277l0.574,0.305l0.586,0.25l0.574,0.297l0.586,0.25l0.574,0.297
		l0.582,0.25l0.586,0.305l0.547,0.262l0.602,0.285l0.563,0.266l0.539,0.273l0.555,0.27l0.617,0.281l0.555,0.262l0.555,0.273
		l0.551,0.27l0.559,0.266l0.582,0.25l0.551,0.266l0.555,0.281l0.555,0.262l0.527,0.238l0.563,0.27l0.547,0.266l0.535,0.238
		l0.52,0.293l0.555,0.27l0.535,0.238l0.547,0.27l0.531,0.238l0.535,0.238l0.527,0.293l0.527,0.23l0.527,0.242l0.508,0.262
		l0.547,0.273l0.535,0.227l0.5,0.27l0.531,0.223l0.504,0.27l0.512,0.203l0.5,0.258l0.496,0.27l0.531,0.23l0.496,0.262l0.508,0.203
		l0.508,0.266l0.477,0.223l0.508,0.258l0.508,0.211l0.504,0.258l0.484,0.223l0.473,0.23l0.477,0.234l0.477,0.223l0.508,0.254
		l0.477,0.234l0.477,0.223l0.48,0.23l0.457,0.195l0.48,0.234l0.48,0.223l0.441,0.258l0.469,0.191l0.473,0.227l0.453,0.195
		l0.449,0.246l0.457,0.203l0.449,0.242l0.453,0.195l0.461,0.195l0.43,0.219l0.477,0.227l0.418,0.223l0.434,0.215l0.465,0.199
		l0.41,0.215l0.406,0.191l0.461,0.199l0.426,0.215l0.41,0.184l0.43,0.215l0.418,0.223l0.41,0.188l0.402,0.184l0.426,0.219
		l0.398,0.188l0.41,0.184l0.398,0.18l0.41,0.195l0.41,0.18l0.359,0.211l0.414,0.188l0.398,0.184l0.406,0.188l0.371,0.207
		l0.387,0.156l0.371,0.211l0.383,0.148l0.379,0.215l0.379,0.148l0.352,0.184l0.402,0.18l0.352,0.18l0.355,0.18l0.348,0.176
		l0.379,0.152l0.355,0.168l0.32,0.152l0.363,0.176l0.352,0.176l0.324,0.145l0.355,0.176l0.324,0.141l0.359,0.18l0.301,0.168
		l0.328,0.145l0.344,0.176l0.332,0.141l0.301,0.168l0.324,0.148l0.336,0.148l0.277,0.129l0.332,0.148l0.293,0.164l0.277,0.133
		l0.328,0.145l0.281,0.133l0.289,0.172l0.313,0.109l0.273,0.137l0.281,0.137l0.285,0.133l0.273,0.133l0.277,0.129l0.277,0.148
		l0.273,0.125l0.27,0.133l0.254,0.102l0.289,0.141l0.219,0.121l0.277,0.137l0.254,0.102l0.23,0.129l0.25,0.105l0.227,0.117
		l0.254,0.102l0.223,0.133l0.254,0.105l0.223,0.117l0.207,0.094l0.223,0.129l0.23,0.07l0.227,0.121l0.207,0.09l0.199,0.098
		l0.219,0.125l0.203,0.094l0.207,0.098l0.195,0.086l0.156,0.086l0.203,0.098l0.195,0.086l0.148,0.086l0.203,0.09l0.184,0.063
		l0.172,0.113l0.18,0.066l0.148,0.082l0.145,0.078l0.18,0.066l0.148,0.082l0.156,0.082l0.129,0.059l0.145,0.078l0.152,0.082
		l0.133,0.055l0.125,0.047l0.145,0.078l0.137,0.059l0.117,0.051l0.129,0.051l0.09,0.078l0.133,0.047l0.098,0.02l0.105,0.07
		l0.129,0.051l0.078,0.047l0.254,0.102l0.758,0.309l0.129,0.051L1617.094,1639.18z"/>
	<g>
		<path style="fill:#FBBC52;" d="M1366.688,1131.773l-6.371-12.934c-17.754,42.531-39.406,83.012-66.445,121.148
			c-18.422,25.977-38.848,50.637-61.016,73.629c-8.652,8.992-17.59,17.777-26.773,26.266
			c-25.391,23.473-52.664,44.867-81.508,63.848l165.309,79.063c15.145-15.93,29.734-32.359,43.719-49.328
			c6.719-8.16,13.316-16.445,19.73-24.852c31.957-41.633,60.309-85.988,84.613-132.445L1366.688,1131.773z"/>
		<path style="fill:#FBBC52;" d="M1132.301,1234.359c23.156-21.531,45.18-44.285,65.852-68.266
			c41.816-48.512,78.047-102.172,106.766-159.449l-42.375-85.805c-79.879,79.891-171.129,148.434-269.91,203.457l0,0
			c-75.902,42.273-156.273,76.574-239.324,101.898l240.484,114.988C1042.945,1309.707,1089.559,1274.117,1132.301,1234.359
			L1132.301,1234.359z"/>
	</g>
	<path style="fill:#EE7038;" d="M1132.301,1234.359L1132.301,1234.359l-139.668-110.063
		c-75.902,42.273-156.273,76.574-239.324,101.898l240.484,114.988C1042.945,1309.707,1089.559,1274.117,1132.301,1234.359z"/>
	<path style="fill:#EE7038;" d="M1353.332,1408.613l-120.477-94.996c-8.652,8.992-17.59,17.777-26.773,26.266
		c-25.391,23.473-52.664,44.867-81.508,63.848l165.309,79.063c15.145-15.93,29.734-32.359,43.719-49.328
		C1340.32,1425.305,1346.918,1417.02,1353.332,1408.613z"/>
	<path style="fill:#34245A;" d="M671.734,986.219c52.945-11.676,102.145-36.238,148.957-63.558
		c114.926-67.102,222.156-157.801,290.613-269.977c-2.082-15.719-7.855-28.793-17.656-38.469
		c-54.762-54.102-214.234,18.578-356.203,162.34c-71.844,72.734-125.426,149.738-153.719,215.09
		C613.027,994.902,643.004,992.559,671.734,986.219z"/>
	<path style="fill:#FBBC09;" d="M670.527,714.137c-10.266,7.953-4.938,44.57,5.078,36.813
		c23.652-18.309,47.281-40.137,53.781-70.586c5.777-27.082-2.484-56.453-26.523-71.957c-34.301-22.117-78.539-9.094-114.961-25.855
		c-24.07-11.078-45.043-30.293-57.969-53.703c36.859,10.25,75.063,8.183,107.262-15.398
		c61.586-45.102,40.156-152.371-41.465-154.859c-64.309-1.953-95.148,61.066-96.977,119.766
		c-18.25-8.402-35.246-19.656-50.16-32.777c-73.688-64.82-91.941-165.141-84.453-258.914c0.48-6.121,0.992-20.789-6.672-23.48
		c-7.496-2.641-11.273,7.516-11.742,13.336c-7.434,93.063,3.402,193.293,62.559,269.297c22.012,28.266,56.273,56.266,94.102,73.066
		c1.082,4.867,2.422,9.555,3.984,14.016c14.113,40.102,45.48,75.875,86.035,90.453c28.07,10.082,58.238,5.184,86.426,13.555
		c19.82,5.887,38.902,18.113,26.184,42.613C697.852,693.34,682.348,704.981,670.527,714.137z M563.285,404.406
		c28.227-14.508,77.297-6.941,89.227,27.035c8.52,24.27-17.996,46.738-37.652,54.973c-20.785,8.703-43.813,9.773-65.941,6.789
		c-10.848-1.465-21.543-4.035-31.945-7.566C515.57,452.703,533.227,419.855,563.285,404.406z"/>
	<path style="fill:#E61C56;" d="M557.598,839.769c-17.074-26.855-53.145-47.441-82.676-57.301
		c-48.582-16.23-77.043,42.625-110.211,66.309c-47.613,33.984-105.367,13.922-137.273-29.859
		c-26.699-36.645-64.352-90.031-116.789-64.234c-17.121,8.43-11.645,64.699,7.621,55.223
		c52.992-26.074,83.301,50.574,111.813,79.305c30.473,30.695,75.859,41.535,116.934,27.539c20.969-7.148,37.129-21.25,52.246-36.977
		c14.777-15.387,35.273-43.883,59.223-43.824c14.199,0.039,30.422,10.82,42.215,17.691c11.098,6.465,29.566,15.477,36.652,26.621
		C554.684,907.516,567.535,855.379,557.598,839.769z"/>
	<path style="fill:#3EB6A4;" d="M889.602,290.199c-6.336,0.188-11.117-2.324-15.887-6.277c-9.379-7.789-15.184,28.422-5.074,36.813
		c16.457,13.66,39.578,7.484,50.344-10.324c10.922-18.063,9.086-44.734-1.211-62.535c-29.457-50.91-98.48-17.938-130.277,12.133
		c-36.969,34.988-37.731,94.281-6.223,133.313c18.641,23.082,45.066,34.012,72.285,43.477c13.074,4.555,32.676,9.934,41.367,21.777
		c18.5,25.211-3.926,49.625-23.68,64.895c-10.277,7.945-4.941,44.563,5.074,36.817c29.598-22.875,49.781-54.813,45.258-93.496
		c-5.074-43.301-36.332-57.367-73.465-70.371c-20.359-7.129-40.316-16.629-54.723-33.238c-24.148-27.848-14.766-57.047,12.84-77.621
		c17.297-12.902,38.625-25.145,60.629-26.086c14.43-0.613,29.613,2.324,32.195,17.617
		C900.789,287.383,900.789,289.859,889.602,290.199z"/>
</g>
</svg>
