<svg xmlns="http://www.w3.org/2000/svg" width="960" height="224" viewBox="0 0 960 224">
<rect width="960" height="224" fill="#FFFFFF"/>
<rect x="64" y="0" width="32" height="32" fill="#000000"/>
<rect x="96" y="0" width="32" height="32" fill="#000000"/>
<rect x="128" y="0" width="32" height="32" fill="#000000"/>
<rect x="160" y="0" width="32" height="32" fill="#000000"/>
<rect x="192" y="0" width="32" height="32" fill="#000000"/>
<rect x="64" y="32" width="32" height="32" fill="#000000"/>
<rect x="64" y="64" width="32" height="32" fill="#000000"/>
<rect x="64" y="96" width="32" height="32" fill="#000000"/>
<rect x="96" y="96" width="32" height="32" fill="#000000"/>
<rect x="128" y="96" width="32" height="32" fill="#000000"/>
<rect x="160" y="96" width="32" height="32" fill="#000000"/>
<rect x="64" y="128" width="32" height="32" fill="#000000"/>
<rect x="64" y="160" width="32" height="32" fill="#000000"/>
<rect x="64" y="192" width="32" height="32" fill="#000000"/>
<rect x="288" y="96" width="32" height="32" fill="#000000"/>
<rect x="320" y="96" width="32" height="32" fill="#000000"/>
<rect x="352" y="96" width="32" height="32" fill="#000000"/>
<rect x="384" y="96" width="32" height="32" fill="#000000"/>
<rect x="416" y="96" width="32" height="32" fill="#000000"/>
<rect x="288" y="160" width="32" height="32" fill="#000000"/>
<rect x="320" y="160" width="32" height="32" fill="#000000"/>
<rect x="352" y="160" width="32" height="32" fill="#000000"/>
<rect x="384" y="160" width="32" height="32" fill="#000000"/>
<rect x="416" y="160" width="32" height="32" fill="#000000"/>
<rect x="512" y="64" width="32" height="32" fill="#000000"/>
<rect x="544" y="64" width="32" height="32" fill="#000000"/>
<rect x="608" y="64" width="32" height="32" fill="#000000"/>
<rect x="640" y="64" width="32" height="32" fill="#000000"/>
<rect x="512" y="96" width="32" height="32" fill="#000000"/>
<rect x="576" y="96" width="32" height="32" fill="#000000"/>
<rect x="640" y="96" width="32" height="32" fill="#000000"/>
<rect x="512" y="128" width="32" height="32" fill="#000000"/>
<rect x="576" y="128" width="32" height="32" fill="#000000"/>
<rect x="640" y="128" width="32" height="32" fill="#000000"/>
<rect x="512" y="160" width="32" height="32" fill="#000000"/>
<rect x="576" y="160" width="32" height="32" fill="#000000"/>
<rect x="640" y="160" width="32" height="32" fill="#000000"/>
<rect x="512" y="192" width="32" height="32" fill="#000000"/>
<rect x="576" y="192" width="32" height="32" fill="#000000"/>
<rect x="640" y="192" width="32" height="32" fill="#000000"/>
<rect x="768" y="64" width="32" height="32" fill="#000000"/>
<rect x="800" y="64" width="32" height="32" fill="#000000"/>
<rect x="832" y="64" width="32" height="32" fill="#000000"/>
<rect x="736" y="96" width="32" height="32" fill="#000000"/>
<rect x="864" y="96" width="32" height="32" fill="#000000"/>
<rect x="736" y="128" width="32" height="32" fill="#000000"/>
<rect x="768" y="128" width="32" height="32" fill="#000000"/>
<rect x="800" y="128" width="32" height="32" fill="#000000"/>
<rect x="832" y="128" width="32" height="32" fill="#000000"/>
<rect x="864" y="128" width="32" height="32" fill="#000000"/>
<rect x="736" y="160" width="32" height="32" fill="#000000"/>
<rect x="864" y="160" width="32" height="32" fill="#000000"/>
<rect x="736" y="192" width="32" height="32" fill="#000000"/>
<rect x="864" y="192" width="32" height="32" fill="#000000"/>
</svg>